<svg enable-background="new 0 0 391.514 366.786" height="366.786" viewBox="0 0 391.514 366.786" width="391.514" xmlns="http://www.w3.org/2000/svg"><circle cx="197.71" cy="183.04" fill="#ea2f26" r="183.04"/><g fill="#fff"><path d="m195.75 275.081c-12.849.011-25.099-3.788-35.829-10.319-10.751-6.535-20.073-15.732-27.756-26.755-15.335-22.071-24.341-51.519-24.368-83.826.006-24.231 5.107-46.851 14.092-65.96 8.999-19.082 21.902-34.793 38.031-44.619 10.73-6.533 22.98-10.333 35.829-10.32 12.849-.013 25.098 3.787 35.829 10.32 10.754 6.534 20.075 15.731 27.758 26.754 15.334 22.07 24.339 51.518 24.369 83.825-.01 24.233-5.108 46.852-14.094 65.961-9 19.08-21.902 34.794-38.033 44.62-10.714 6.522-22.941 10.319-35.768 10.319-.019 0-.04 0-.06 0zm-23.086-210.492c-7.353 4.459-14.339 11.168-20.35 19.803-12.053 17.241-19.989 42.105-19.962 69.788-.006 20.761 4.423 39.94 11.754 55.502 7.321 15.592 17.528 27.424 28.558 34.088 7.379 4.463 15.037 6.741 23.086 6.754 8.048-.013 15.708-2.291 23.085-6.754 7.354-4.457 14.339-11.166 20.352-19.803 12.055-17.24 19.988-42.103 19.96-69.787.008-20.76-4.42-39.94-11.753-55.502-7.321-15.589-17.528-27.421-28.559-34.089-7.378-4.461-15.037-6.739-23.085-6.751-8.049.013-15.708 2.29-23.086 6.751z"/><path d="m196.361 269.849c-1.184-.652-2.003-1.396-2.633-2.08-1.239-1.383-1.854-2.588-2.416-3.786-1.066-2.38-1.751-4.89-2.439-7.958-1.332-6.085-2.427-14.246-3.365-24.277-1.858-20.025-2.991-47.358-2.992-77.565.004-36.023 1.602-67.902 4.147-88.286.858-6.824 1.8-12.337 2.965-16.654.707-2.5 1.354-4.551 2.714-6.804.772-1.179 1.739-2.62 4.02-3.924 1.164-.646 2.763-1.149 4.44-1.141v9.378l1.009 1.411 3.126 2.175 1.338.696c-.007.015-.029.057-.057.116-.249.515-.832 2.274-1.354 4.702-1.087 4.908-2.162 12.656-3.055 22.278-1.795 19.289-2.924 46.268-2.921 76.051-.006 34.933 1.557 66.057 3.91 85.343.771 6.401 1.651 11.516 2.476 14.722.406 1.65.862 2.814.98 3.048.018.029.022.04.022.04l-.859.46.827-.515-4.584 2.85-.859 1.578v-7.09 16.37c-.015 0-.029 0-.042 0-1.661.001-3.243-.499-4.398-1.138z"/><path d="m94.818 302.209c-7.559.013-14.817-2.276-21.101-6.052-6.312-3.785-11.772-8.979-16.565-15.125-9.552-12.321-16.642-28.566-21.357-47.409l23.831-5.926c3.04 12.251 7.247 22.851 12.011 30.974 4.747 8.155 10.06 13.685 14.682 16.408 3.11 1.838 5.786 2.561 8.498 2.573 2.719-.013 5.399-.737 8.515-2.581 3.086-1.843 6.486-4.882 9.813-9.17 6.688-8.552 12.879-21.99 16.907-38.378l23.837 5.898c-3.515 14.176-8.415 26.88-14.646 37.562-6.247 10.652-13.814 19.433-23.292 25.152-6.269 3.775-13.512 6.073-21.059 6.073-.024.001-.049.001-.074.001z"/><path d="m296.663 302.209c-7.561.015-14.816-2.276-21.101-6.054-6.312-3.783-11.772-8.978-16.566-15.123-9.552-12.321-16.642-28.563-21.355-47.409l23.829-5.928c3.041 12.251 7.248 22.853 12.012 30.976 4.748 8.155 10.061 13.685 14.683 16.408 3.11 1.838 5.786 2.561 8.499 2.573 2.717-.013 5.397-.737 8.514-2.581 3.087-1.841 6.486-4.882 9.812-9.17 6.688-8.554 12.88-21.99 16.907-38.378l23.838 5.898c-3.516 14.176-8.415 26.878-14.645 37.562-6.248 10.652-13.815 19.433-23.293 25.152-6.271 3.778-13.517 6.073-21.066 6.073-.021.001-.045.001-.068.001z"/><path d="m145.266 75.865 7.683-14.455c11.77 6.264 26.631 10.092 42.803 10.085 16.172.006 31.03-3.819 42.8-10.083l7.683 14.455c-14.344 7.617-31.745 11.992-50.483 11.999-18.741-.007-36.143-4.384-50.486-12.001z"/><path d="m128.391 105.332 11.045-12.084c12.583 11.56 33.076 19.536 56.313 19.505 23.239.031 43.732-7.945 56.314-19.505l11.045 12.084c-16.269 14.812-40.448 23.758-67.359 23.792-26.91-.033-51.091-8.98-67.358-23.792z"/><path d="m150.588 160.466c-13.23-6.001-24.312-14.607-31.829-25.292l13.398-9.408c5.478 7.826 14.191 14.814 25.185 19.786 10.981 4.978 24.186 7.93 38.408 7.927 14.223.003 27.426-2.949 38.408-7.925 10.992-4.971 19.705-11.961 25.185-19.784h.002l13.396 9.408c-7.516 10.684-18.601 19.288-31.828 25.288-13.241 5.991-28.683 9.382-45.163 9.384-16.478-.002-31.921-3.393-45.162-9.384z"/><path d="m144.364 198.005c-14.484-7.92-25.889-19.268-31.65-33.135l15.124-6.261c3.949 9.596 12.46 18.531 24.373 25.028 11.884 6.499 27.027 10.488 43.54 10.482 16.514.006 31.656-3.983 43.54-10.482 11.913-6.498 20.425-15.433 24.372-25.028h.001l15.125 6.261c-5.763 13.868-17.167 25.215-31.651 33.135-14.514 7.918-32.25 12.478-51.386 12.486-19.137-.009-36.874-4.568-51.388-12.486z"/><path d="m125.637 217.28 11.676-11.476c12.337 12.632 33.841 21.586 58.434 21.546 24.598.04 46.105-8.914 58.439-21.553l11.679 11.475c-16.206 16.41-41.642 26.407-70.118 26.45-28.47-.042-53.903-10.037-70.11-26.442z"/><path d="m195.75 333.505c-3.517.011-6.929-.904-9.811-2.347-2.897-1.444-5.312-3.362-7.379-5.484-4.114-4.268-7.017-9.362-9.405-15.112-4.69-11.482-7.208-25.853-7.238-41.697 0-4.039.171-7.984.5-11.811l24.465 2.101c-.266 3.119-.409 6.37-.409 9.71-.003 8.32.894 16.103 2.38 22.608 1.464 6.501 3.601 11.734 5.523 14.735.496.8.975 1.427 1.377 1.893 1.054-1.23 2.559-3.61 3.885-6.885 3.111-7.469 5.419-19.277 5.389-32.352 0-3.34-.144-6.591-.409-9.706l24.463-2.107c.33 3.827.502 7.774.502 11.813-.004 10.385-1.125 20.169-3.186 28.89-2.092 8.731-5.013 16.389-9.305 22.778-2.889 4.223-6.454 8.06-11.53 10.626-2.865 1.437-6.257 2.347-9.754 2.347-.02 0-.04 0-.058 0z"/><path d="m331.895 227.547c1.842-6.526 8.629-10.321 15.152-8.479 6.259 1.769 10.006 8.082 8.676 14.353z"/><path d="m59.626 227.697c-1.843-6.526-8.705-10.341-15.229-8.498-6.259 1.769-9.933 8.153-8.602 14.424"/></g></svg>